<svg width="179" height="179" viewBox="0 0 179 179" fill="none" xmlns="http://www.w3.org/2000/svg">
<g clip-path="url(#clip0_2301_206)">
<path d="M91.1012 116.848C107.147 116.848 120.155 103.84 120.155 87.7942C120.155 71.7484 107.147 58.7407 91.1012 58.7407C75.0554 58.7407 62.0477 71.7484 62.0477 87.7942C62.0477 103.84 75.0554 116.848 91.1012 116.848Z" fill="#A0616A"/>
<path d="M67.0536 123.353L73.11 107.876L104.401 103.166L107.763 137.427L76.1355 138.1L67.0536 123.353Z" fill="#A0616A"/>
<path d="M120.436 93.1547C120.059 94.6653 119.297 98.2622 118.107 98.2799C117.134 98.294 116.203 82.6898 117.175 80.1088C118.291 77.1436 115.358 73.3927 113.149 71.4673C109.177 68.0052 100.361 75.4391 91.3962 72.0715C91.1586 71.9824 91.2059 71.9924 88.375 70.863C79.664 67.3874 79.2061 67.2871 78.707 67.2375C74.4842 66.8197 69.3307 70.2753 67.2263 74.4885C65.0387 78.8681 66.8665 82.6246 64.8093 93.2202C64.5696 94.4552 64.1931 96.2154 63.6008 96.2414C62.518 96.2886 61.4607 90.5052 61.1838 88.9904C60.0237 82.6441 58.9052 76.5255 61.1838 69.6545C61.4324 68.9051 62.9643 66.1234 66.0178 60.5908C70.4169 52.6205 72.6294 48.6203 73.2688 47.9016C77.8543 42.7448 86.2011 38.0406 93.209 40.0463C96.751 41.0601 96.1159 42.6899 100.46 44.2761C108.201 47.1026 114.93 43.6459 116.17 46.0888C116.828 47.3829 114.989 48.4498 114.962 50.9228C114.916 55.1661 120.283 56.3923 123.421 60.5908C125.109 62.8479 127.997 62.8721 120.436 93.1547Z" fill="#2F2E41"/>
<path d="M156.43 148.924C155.259 150.239 154.044 151.528 152.786 152.786C135.882 169.69 113.406 179 89.5 179C68.8377 179 49.2453 172.046 33.3943 159.243C33.3842 159.236 33.3775 159.23 33.3675 159.219C31.2645 157.524 29.2289 155.72 27.2639 153.816C27.3009 153.52 27.3413 153.227 27.385 152.938C27.6609 150.986 27.9672 149.125 28.3103 147.413C31.1198 133.376 68.0874 118.638 69.0496 118.255C69.0631 118.251 69.0698 118.248 69.0698 118.248C69.0698 118.248 73.8275 135.785 94.2139 135.559C108.1 135.408 105.408 118.248 105.408 118.248C105.408 118.248 105.576 118.282 105.893 118.349C109.903 119.2 137.749 125.317 148.735 133.665C152.083 136.209 154.485 141.626 156.211 148.086C156.285 148.362 156.356 148.644 156.43 148.924Z" fill="#2B4B80"/>
<path d="M152.786 26.2141C135.882 9.31032 113.406 0 89.5 0C65.5941 0 43.1182 9.31032 26.214 26.2141C9.31008 43.1183 0 65.5941 0 89.5C0 111.32 7.75556 131.949 21.9679 148.237C23.3239 149.795 24.7404 151.312 26.214 152.786C26.5606 153.133 26.9106 153.479 27.2639 153.816C29.2289 155.72 31.2645 157.524 33.3674 159.219C33.3774 159.229 33.3842 159.236 33.3943 159.243C49.2452 172.045 68.8376 179 89.5 179C113.406 179 135.882 169.69 152.786 152.786C154.044 151.528 155.259 150.239 156.43 148.923C171.022 132.531 179 111.63 179 89.5C179 65.5941 169.69 43.1183 152.786 26.2141ZM156.211 148.086C153.563 151.097 150.717 153.93 147.688 156.558C141.945 161.554 135.552 165.821 128.658 169.219C126.239 170.414 123.759 171.5 121.222 172.473C111.367 176.255 100.671 178.327 89.5 178.327C78.7196 178.327 68.3834 176.396 58.8177 172.863C54.8911 171.416 51.0958 169.697 47.4518 167.728C46.9168 167.439 46.3853 167.146 45.857 166.847C43.0778 165.272 40.3894 163.553 37.8087 161.696C34.111 159.044 30.6252 156.114 27.3849 152.937C25.5681 151.157 23.8319 149.304 22.1732 147.376C8.77843 131.818 0.672932 111.589 0.672932 89.5C0.672932 40.5208 40.5206 0.672932 89.5 0.672932C138.479 0.672932 178.327 40.5208 178.327 89.5C178.327 111.929 169.973 132.44 156.211 148.086Z" fill="#3F3D56"/>
</g>
<defs>
<clipPath id="clip0_2301_206">
<rect width="179" height="179" fill="white"/>
</clipPath>
</defs>
</svg>
