<svg width="213" height="131" viewBox="0 0 213 131" fill="none" xmlns="http://www.w3.org/2000/svg">
<g clip-path="url(#clip0_2126_274)">
<path d="M163.078 129.518C160.351 127.148 158.694 123.403 159.129 119.758C159.563 116.113 162.254 112.762 165.744 111.987C169.234 111.213 173.212 113.356 174.272 116.863C174.855 110.102 175.528 103.057 179.022 97.2991C182.186 92.0854 187.667 88.3548 193.606 87.6874C199.546 87.02 205.799 89.5407 209.503 94.3632C213.208 99.1858 214.115 106.197 211.52 111.734C209.609 115.812 206.088 118.848 202.399 121.317C190.478 129.23 176.18 132.447 162.136 130.378L163.078 129.518Z" fill="#385283"/>
<path d="M203.63 89.6804C198.729 93.7868 194.233 98.3795 190.207 103.392C183.906 111.21 178.807 119.975 175.088 129.382C174.816 130.068 175.899 130.367 176.169 129.688C182.253 114.4 191.967 100.925 204.422 90.4953C204.981 90.0268 204.185 89.2158 203.63 89.6804Z" fill="white"/>
<path d="M68.5682 128.875C72.3136 125.619 74.5887 120.476 73.9921 115.469C73.3955 110.462 69.7001 105.859 64.9066 104.796C60.1132 103.733 54.649 106.676 53.193 111.493C52.3918 102.206 51.4684 92.5301 46.6688 84.6215C42.3228 77.4604 34.7955 72.3364 26.6375 71.4198C18.4796 70.5031 9.89036 73.9653 4.80255 80.5891C-0.285248 87.2129 -1.53097 96.8425 2.03239 104.447C4.65739 110.049 9.49358 114.218 14.5607 117.61C30.7265 128.431 50.7803 132.944 69.8617 130.056" fill="#385283"/>
<path d="M12.8699 74.1571C19.6012 79.7973 25.7764 86.1053 31.3063 92.99C36.8371 99.8677 41.7063 107.281 45.8457 115.126C48.1594 119.526 50.2378 124.054 52.0717 128.687C52.4456 129.63 50.9578 130.04 50.588 129.108C47.3397 120.939 43.3209 113.117 38.5892 105.754C33.8806 98.4183 28.4913 91.5694 22.497 85.304C19.1067 81.762 15.5295 78.4144 11.7818 75.2764C11.0137 74.6329 12.108 73.519 12.8699 74.1571Z" fill="white"/>
<path d="M152.895 130.713H63.5327V36.3932C63.5327 16.3259 79.403 0 98.9102 0H117.517C137.025 0 152.895 16.3259 152.895 36.3932V130.713Z" fill="#F2F2F2"/>
<path d="M134.288 130.713H63.5328V36.3932C63.5133 28.7039 65.8802 21.2089 70.289 14.9994C70.4515 14.7716 70.6136 14.5466 70.7808 14.3242C72.9133 11.447 75.4511 8.9131 78.3103 6.80613C78.4718 6.68524 78.634 6.56645 78.7985 6.44766C81.191 4.74446 83.7791 3.35213 86.5038 2.30236C86.6656 2.23927 86.8303 2.17606 86.995 2.11543C89.4593 1.21078 92.0137 0.591105 94.6112 0.267836C94.7723 0.245207 94.9376 0.227499 95.1029 0.209791C97.6342 -0.0686282 100.187 -0.0686282 102.718 0.209791C102.883 0.227499 103.049 0.245204 103.212 0.268078C105.808 0.591368 108.362 1.21097 110.826 2.11544C110.991 2.17607 111.155 2.23928 111.318 2.30249C114.009 3.33902 116.566 4.71057 118.933 6.38654C119.098 6.50276 119.262 6.62155 119.424 6.74035C121.027 7.9172 122.533 9.22829 123.925 10.6602C125.042 11.8088 126.083 13.0331 127.041 14.3249C127.207 14.5467 127.369 14.7716 127.532 14.9991C131.94 21.2086 134.308 28.7037 134.288 36.3932V130.713Z" fill="#F5F7FA"/>
<path d="M128.534 88.5272C130.698 88.5272 132.452 86.723 132.452 84.4975C132.452 82.2719 130.698 80.4678 128.534 80.4678C126.371 80.4678 124.617 82.2719 124.617 84.4975C124.617 86.723 126.371 88.5272 128.534 88.5272Z" fill="#2B4B80"/>
<path d="M145.574 127.888H142.573L141.145 115.979L145.575 115.979L145.574 127.888Z" fill="#FFB8B8"/>
<path d="M140.429 127.006H146.217V130.755H136.784C136.784 130.263 136.878 129.775 137.061 129.32C137.245 128.866 137.513 128.452 137.851 128.104C138.19 127.756 138.592 127.48 139.034 127.291C139.476 127.103 139.95 127.006 140.429 127.006Z" fill="#2F2E41"/>
<path d="M160.509 127.888H157.507L156.079 115.979L160.509 115.979L160.509 127.888Z" fill="#FFB8B8"/>
<path d="M155.363 127.006H161.152V130.755H151.718C151.718 130.263 151.813 129.775 151.996 129.32C152.179 128.866 152.447 128.452 152.786 128.104C153.124 127.756 153.526 127.48 153.968 127.291C154.41 127.103 154.884 127.006 155.363 127.006Z" fill="#2F2E41"/>
<path d="M130.517 85.296C130.301 84.9687 130.157 84.5967 130.096 84.2062C130.035 83.8157 130.058 83.4161 130.164 83.0357C130.269 82.6553 130.454 82.3032 130.706 82.0043C130.958 81.7055 131.27 81.467 131.621 81.3058L141.825 52.376L146.845 55.1946L135.195 82.841C135.419 83.4658 135.413 84.1534 135.177 84.7736C134.941 85.3938 134.493 85.9035 133.916 86.2061C133.339 86.5087 132.675 86.5832 132.048 86.4155C131.422 86.2477 130.877 85.8494 130.517 85.296Z" fill="#FFB8B8"/>
<path d="M158.975 90.732C158.642 90.5353 158.354 90.2657 158.133 89.9423C157.912 89.6188 157.762 89.2494 157.694 88.86C157.627 88.4706 157.643 88.0707 157.742 87.6885C157.841 87.3063 158.02 86.951 158.267 86.6478L155.106 56.0449L160.82 56.3134L162.134 86.4154C162.601 86.8758 162.889 87.4967 162.941 88.1604C162.994 88.8242 162.808 89.4847 162.418 90.0168C162.029 90.5488 161.464 90.9155 160.829 91.0474C160.194 91.1792 159.535 91.067 158.975 90.732Z" fill="#FFB8B8"/>
<path d="M149.86 47.0172C153.181 47.0172 155.874 44.2477 155.874 40.8314C155.874 37.415 153.181 34.6455 149.86 34.6455C146.539 34.6455 143.847 37.415 143.847 40.8314C143.847 44.2477 146.539 47.0172 149.86 47.0172Z" fill="#FFB8B8"/>
<path d="M158.937 83.7719H140.808L140.83 83.6268C140.863 83.4099 144.061 61.8566 141.702 54.8054C141.465 54.1125 141.486 53.354 141.761 52.6759C142.035 51.9978 142.543 51.4481 143.188 51.1325C146.56 49.4991 153.032 47.4878 158.495 52.3689C159.299 53.099 159.926 54.0114 160.328 55.0341C160.73 56.0568 160.895 57.1617 160.811 58.2613L158.937 83.7719Z" fill="#2B4B80"/>
<path d="M144.29 65.0419L136.128 63.3385L139.954 54.0123C140.183 53.109 140.751 52.336 141.533 51.8629C142.315 51.3897 143.248 51.255 144.127 51.4884C145.005 51.7217 145.758 52.304 146.22 53.1076C146.682 53.9111 146.815 54.8703 146.59 55.7747L144.29 65.0419Z" fill="#2B4B80"/>
<path d="M154.743 68.2045L154.253 56.6339C153.881 54.4588 155.091 52.4026 156.953 52.0666C158.815 51.7317 160.633 53.2402 161.006 55.4313L162.851 66.2429L154.743 68.2045Z" fill="#2B4B80"/>
<path d="M158.334 82.3867C161.251 93.8151 161.569 108.345 160.782 124.195L156.865 123.691L149.765 93.4684L145.848 124.195L141.441 123.943C140.124 107.313 138.842 93.0364 140.951 83.646L158.334 82.3867Z" fill="#2F2E41"/>
<path d="M153.822 45.6122C152.701 46.8414 150.617 46.1816 150.471 44.5022C150.46 44.3718 150.461 44.2406 150.474 44.1104C150.549 43.3665 150.967 42.6912 150.867 41.9058C150.844 41.7103 150.773 41.524 150.661 41.3646C149.767 40.1331 147.669 41.9153 146.825 40.8006C146.308 40.117 146.916 39.0408 146.519 38.2768C145.995 37.2685 144.443 37.7659 143.47 37.2137C142.387 36.5993 142.452 34.8903 143.165 33.8508C144.034 32.583 145.558 31.9066 147.063 31.8091C148.568 31.7116 150.063 32.1301 151.468 32.6934C153.065 33.3335 154.648 34.2181 155.63 35.6622C156.825 37.4184 156.94 39.7795 156.343 41.8331C155.979 43.0823 154.739 44.6084 153.822 45.6122Z" fill="#2F2E41"/>
<path d="M205.651 130.875H24.8959C24.8187 130.875 24.7448 130.843 24.6903 130.787C24.6358 130.731 24.6052 130.655 24.6052 130.575C24.6052 130.496 24.6358 130.42 24.6903 130.364C24.7448 130.307 24.8187 130.276 24.8959 130.275H205.651C205.728 130.276 205.802 130.307 205.856 130.364C205.911 130.42 205.941 130.496 205.941 130.575C205.941 130.655 205.911 130.731 205.856 130.787C205.802 130.843 205.728 130.875 205.651 130.875Z" fill="#FF6118"/>
<path d="M114.824 103.387H82.9967C82.5775 103.389 82.1745 103.221 81.8762 102.918C81.5779 102.615 81.4085 102.203 81.4053 101.771V28.6905C81.4085 28.2593 81.5779 27.847 81.8762 27.5441C82.1745 27.2412 82.5775 27.0724 82.9967 27.0747H114.824C115.243 27.0724 115.646 27.2412 115.945 27.5441C116.243 27.847 116.412 28.2593 116.416 28.6905V101.771C116.412 102.203 116.243 102.615 115.945 102.918C115.646 103.221 115.243 103.389 114.824 103.387Z" fill="white"/>
<path d="M116.416 50.7212H81.4053V51.2249H116.416V50.7212Z" fill="#CCCCCC"/>
<path d="M116.538 79.4604H81.5276V79.9642H116.538V79.4604Z" fill="#CCCCCC"/>
<path d="M92.912 27.0747H92.4224V103.639H92.912V27.0747Z" fill="#CCCCCC"/>
<path d="M105.153 27.0747H104.664V103.639H105.153V27.0747Z" fill="#CCCCCC"/>
</g>
<defs>
<clipPath id="clip0_2126_274">
<rect width="213" height="131" fill="white"/>
</clipPath>
</defs>
</svg>
