<svg width="92" height="164" viewBox="0 0 92 164" fill="none" xmlns="http://www.w3.org/2000/svg">
<g clip-path="url(#clip0_2126_437)">
<path d="M67.4247 0H15.8763C7.85895 0 1.35962 6.48966 1.35962 14.4951V132.113C1.35962 140.119 7.85895 146.608 15.8763 146.608H67.4247C75.4421 146.608 81.9414 140.119 81.9414 132.113V14.4951C81.9414 6.48966 75.4421 0 67.4247 0Z" fill="#3F3D56"/>
<path d="M80.582 14.4959V132.113C80.578 135.597 79.1904 138.936 76.7238 141.399C74.2571 143.862 70.9128 145.247 67.4244 145.251H15.8768C12.3884 145.247 9.04411 143.862 6.57746 141.399C4.11081 138.936 2.72327 135.597 2.71924 132.113V14.4959C2.72328 11.0127 4.11081 7.67337 6.57746 5.21039C9.04411 2.74741 12.3884 1.36194 15.8768 1.35791H22.6175V3.68291C22.6176 4.73548 23.0363 5.74493 23.7817 6.48921C24.5271 7.23349 25.5381 7.65164 26.5922 7.65171C35.319 10.284 45.5627 9.87311 56.709 7.65171C57.7632 7.65165 58.7741 7.23349 59.5195 6.48921C60.2649 5.74493 60.6837 4.73548 60.6837 3.68291V1.35791H67.4244C70.9128 1.36194 74.2571 2.74741 76.7238 5.21039C79.1904 7.67337 80.578 11.0127 80.582 14.4959Z" fill="white"/>
<path d="M0.988734 29.741C0.726597 29.7407 0.475283 29.6366 0.289925 29.4515C0.104566 29.2665 0.000300285 29.0155 0 28.7538V26.7793C0 26.5174 0.104169 26.2663 0.289593 26.0812C0.475016 25.896 0.726505 25.792 0.988734 25.792C1.25096 25.792 1.50245 25.896 1.68787 26.0812C1.8733 26.2663 1.97747 26.5174 1.97747 26.7793V28.7538C1.97717 29.0155 1.8729 29.2665 1.68754 29.4515C1.50218 29.6366 1.25087 29.7407 0.988734 29.741Z" fill="#3F3D56"/>
<path d="M0.988734 39.8658C0.726597 39.8655 0.475283 39.7614 0.289925 39.5763C0.104566 39.3912 0.000299632 39.1403 0 38.8786V33.4433C0 33.1815 0.104169 32.9304 0.289593 32.7452C0.475016 32.5601 0.726505 32.4561 0.988734 32.4561C1.25096 32.4561 1.50245 32.5601 1.68787 32.7452C1.8733 32.9304 1.97747 33.1815 1.97747 33.4433V38.8786C1.97717 39.1403 1.8729 39.3912 1.68754 39.5763C1.50218 39.7614 1.25087 39.8655 0.988734 39.8658Z" fill="#3F3D56"/>
<path d="M0.988734 48.0055C0.726597 48.0052 0.475283 47.9011 0.289925 47.716C0.104566 47.5309 0.000299632 47.28 0 47.0182V41.583C0 41.3211 0.104169 41.07 0.289593 40.8849C0.475016 40.6997 0.726505 40.5957 0.988734 40.5957C1.25096 40.5957 1.50245 40.6997 1.68787 40.8849C1.8733 41.07 1.97747 41.3211 1.97747 41.583V47.0182C1.97717 47.28 1.8729 47.5309 1.68754 47.716C1.50218 47.9011 1.25087 48.0052 0.988734 48.0055Z" fill="#3F3D56"/>
<path d="M82.0651 28.3276C81.8033 28.3274 81.5521 28.431 81.3667 28.6157C81.1813 28.8004 81.0769 29.051 81.0764 29.3124V42.5763C81.0764 42.8381 81.1806 43.0892 81.366 43.2744C81.5514 43.4595 81.8029 43.5636 82.0651 43.5636C82.3274 43.5636 82.5789 43.4595 82.7643 43.2744C82.9497 43.0892 83.0539 42.8381 83.0539 42.5763V29.3124C83.053 29.0511 82.9485 28.8007 82.7632 28.6162C82.5779 28.4316 82.3269 28.3278 82.0651 28.3276Z" fill="#3F3D56"/>
<path d="M19.6723 7.17567H12.9984C12.6706 7.17567 12.3562 7.04565 12.1244 6.81422C11.8927 6.58278 11.7625 6.26889 11.7625 5.9416C11.7625 5.6143 11.8927 5.30041 12.1244 5.06897C12.3562 4.83754 12.6706 4.70752 12.9984 4.70752H19.6723C20.0001 4.70752 20.3145 4.83754 20.5462 5.06897C20.778 5.30041 20.9082 5.6143 20.9082 5.9416C20.9082 6.26889 20.778 6.58278 20.5462 6.81422C20.3145 7.04565 20.0001 7.17567 19.6723 7.17567Z" fill="#E6E6E6"/>
<path d="M58.4487 130.745C56.5888 130.861 55.5609 128.554 56.968 127.209C57.0196 127.005 57.0565 126.858 57.108 126.653C57.0896 126.609 57.0711 126.564 57.0524 126.52C55.1715 122.042 51.3631 124.556 46.9321 126.557C43.2775 128.208 39.594 130.359 42.6506 138.734C43.2926 140.494 42.5226 142.485 42.9355 144.308C39.0478 135.84 37.029 126.637 37.016 117.321C37.0152 114.984 37.1453 112.648 37.4056 110.325C37.6208 108.421 37.9193 106.53 38.3011 104.653C39.9048 96.8393 42.9128 89.3808 47.1793 82.6383C46.6362 82.6456 46.0922 82.6515 45.5473 82.6559C44.5669 84.2544 43.6532 85.8909 42.8062 87.5653C43.0002 85.9394 43.0321 84.2984 42.9014 82.6662C36.294 82.6639 29.6914 82.4529 23.8538 82.0332C24.0753 99.8974 30.6794 103.623 38.7779 95.0667C39.0047 95.1828 39.2257 95.2989 39.4524 95.4093C37.5017 100.929 36.2781 106.679 35.8124 112.514C35.5487 115.956 35.5643 119.415 35.8589 122.855C35.8531 122.814 35.8473 122.773 35.8415 122.733C35.0971 118.908 33.0535 115.456 30.0558 112.961C25.6034 109.309 19.313 107.964 14.5096 105.029C12.1974 103.616 9.23448 105.442 9.63803 108.118C9.64447 108.161 9.65102 108.204 9.65768 108.247C10.3737 108.538 11.0709 108.873 11.7452 109.251C12.131 109.468 12.5087 109.699 12.8783 109.943C14.9844 111.334 14.2565 114.594 11.761 114.979L11.7044 114.987C11.6637 114.993 11.6288 114.999 11.5882 115.005C12.8116 117.922 14.5288 120.607 16.6644 122.942C17.2599 141.289 26.9279 138.924 37.2719 131.97H37.2777C38.3282 136.528 39.8501 140.965 41.8191 145.208H58.0422C58.1004 145.028 58.1527 144.842 58.205 144.662C56.7034 144.757 55.1958 144.667 53.716 144.395C54.9197 142.921 56.1233 141.434 57.327 139.959C57.3538 139.932 57.3791 139.903 57.4026 139.872C58.0131 139.118 58.6295 138.369 59.24 137.614L59.2404 137.613C59.2729 135.299 59.007 132.991 58.4492 130.745L58.4487 130.745Z" fill="#2F4858"/>
<path d="M41.1621 74.7921C39.5883 71.001 36.6383 67.8082 34.0405 64.5308C30.9202 60.5941 24.5216 62.3121 23.9719 67.3024C23.9665 67.3508 23.9613 67.3991 23.9563 67.4474C24.3421 67.6647 24.7198 67.8954 25.0894 68.1395C27.1956 69.5304 26.4677 72.7904 23.9721 73.1751L23.9156 73.1838C24.053 74.5724 24.296 75.9485 24.6424 77.3003C24.2281 78.8492 23.9641 80.4342 23.854 82.0335C29.6916 82.4532 36.2941 82.6642 42.9016 82.6666C42.6873 79.7649 42.0412 76.9076 41.1621 74.7921Z" fill="#E6E6E6"/>
<path d="M58.1467 69.9875C58.7259 68.837 59.1352 67.6089 59.362 66.3413C59.0073 66.3878 58.0246 60.9938 58.2921 60.6629C57.7978 59.9139 56.9131 59.5416 56.3732 58.8108C53.6883 55.176 49.9892 55.8107 48.0581 60.75C43.9328 62.829 43.8929 66.2767 46.4241 69.5927C48.0345 71.7023 48.2558 74.5569 49.6688 76.8154C49.5234 77.0013 49.3722 77.1813 49.2269 77.3671C47.7232 79.297 46.3297 81.31 45.0529 83.3965C45.5978 83.3921 46.1418 83.3862 46.6849 83.3789C47.9663 81.3546 49.3604 79.4037 50.8608 77.5355C54.0051 75.8224 56.548 73.1881 58.1467 69.9875Z" fill="#E6E6E6"/>
<path opacity="0.1" d="M80.4184 14.4427V77.2671C80.4184 84.5111 2.55566 84.5111 2.55566 77.2671V14.4427C2.5597 10.9595 3.94724 7.62015 6.41388 5.15717C8.88053 2.69419 12.2249 1.30872 15.7132 1.30469H22.4539V3.62969C22.454 4.68226 22.8728 5.6917 23.6182 6.43598C24.3635 7.18026 25.3745 7.59842 26.4286 7.59848C34.7848 10.219 45.1007 9.7876 56.5455 7.59848C57.5996 7.59842 58.6105 7.18026 59.3559 6.43598C60.1013 5.6917 60.5201 4.68226 60.5202 3.62969V1.30469H67.2609C70.7492 1.30872 74.0936 2.69419 76.5602 5.15717C79.0268 7.62015 80.4144 10.9595 80.4184 14.4427Z" fill="black"/>
<path d="M48.8908 21.2314H46.6661C45.8142 21.2324 44.9974 21.5707 44.395 22.1723C43.7925 22.7738 43.4537 23.5894 43.4527 24.44V26.9082H39.4978C38.6459 26.9091 37.8291 27.2475 37.2266 27.849C36.6242 28.4505 36.2854 29.2661 36.2844 30.1168V35.0531C36.2854 35.9038 36.6242 36.7194 37.2266 37.3209C37.8291 37.9224 38.6459 38.2608 39.4978 38.2617H44.4415C45.2934 38.2608 46.1102 37.9224 46.7126 37.3209C47.3151 36.7194 47.6539 35.9038 47.6549 35.0531V30.1168C47.6539 29.2661 47.3151 28.4505 46.7126 27.849C46.1102 27.2475 45.2934 26.9091 44.4415 26.9082H43.9471V24.44C43.9479 23.7202 44.2347 23.0302 44.7444 22.5212C45.2541 22.0122 45.9452 21.7259 46.6661 21.7251H48.8908C49.6117 21.7259 50.3028 22.0122 50.8125 22.5212C51.3223 23.0302 51.609 23.7202 51.6098 24.44V27.155H52.1042V24.44C52.1032 23.5894 51.7644 22.7738 51.1619 22.1723C50.5595 21.5707 49.7427 21.2324 48.8908 21.2314ZM47.1605 30.1168V35.0531C47.1597 35.7729 46.8729 36.463 46.3632 36.972C45.8535 37.481 45.1624 37.7673 44.4415 37.7681H39.4978C38.7769 37.7673 38.0858 37.481 37.5761 36.972C37.0663 36.463 36.7796 35.7729 36.7788 35.0531V30.1168C36.7796 29.397 37.0663 28.7069 37.5761 28.1979C38.0858 27.689 38.7769 27.4026 39.4978 27.4018C41.8385 28.7616 43.128 28.0583 44.4415 27.4018C45.1624 27.4026 45.8535 27.689 46.3632 28.1979C46.8729 28.7069 47.1597 29.397 47.1605 30.1168Z" fill="white"/>
<path d="M41.9695 34.8065C42.4095 34.8065 42.8396 34.6762 43.2055 34.4321C43.5713 34.188 43.8565 33.8411 44.0248 33.4352C44.1932 33.0293 44.2373 32.5826 44.1514 32.1517C44.0656 31.7208 43.8537 31.325 43.5426 31.0144C43.2315 30.7037 42.8351 30.4922 42.4035 30.4065C41.972 30.3207 41.5247 30.3647 41.1182 30.5329C40.7117 30.701 40.3642 30.9857 40.1198 31.351C39.8753 31.7163 39.7449 32.1458 39.7449 32.5851C39.7456 33.174 39.9802 33.7386 40.3972 34.1551C40.8143 34.5715 41.3797 34.8058 41.9695 34.8065ZM41.9695 32.0915C42.9236 32.0915 43.6998 31.6324 43.6998 32.5851C43.6998 33.0433 43.5175 33.4828 43.193 33.8068C42.8685 34.1308 42.4284 34.3128 41.9695 34.3128C41.5106 34.3128 41.0705 34.1308 40.746 33.8068C40.4215 33.4828 40.2392 33.0433 40.2392 32.5851C40.2392 31.6324 41.0154 32.0915 41.9695 32.0915Z" fill="white"/>
<path d="M41.9696 33.3256C42.3791 33.3256 42.7111 32.9941 42.7111 32.5852C42.7111 32.1762 42.3791 31.8447 41.9696 31.8447C41.56 31.8447 41.228 32.1762 41.228 32.5852C41.228 32.9941 41.56 33.3256 41.9696 33.3256Z" fill="white"/>
<path d="M83.0539 35.5469H81.2717V36.0405H83.0539V35.5469Z" fill="white"/>
<path opacity="0.1" d="M2.66748 76.0376V77.2717C2.66748 84.5157 80.5303 84.5157 80.5303 77.2717V76.0376C80.5303 83.2816 2.66748 83.2816 2.66748 76.0376Z" fill="black"/>
<path d="M71.4405 93.6954C71.9241 93.597 72.3502 93.3141 72.628 92.9068C72.9059 92.4996 73.0136 92.0001 72.9283 91.5147C72.9094 91.4163 72.8824 91.3197 72.8475 91.2257L77.912 86.9848L76.661 83.6616L70.3524 90.2202C69.9735 90.3947 69.6631 90.6896 69.4697 91.0588C69.2762 91.4279 69.2106 91.8507 69.2831 92.261C69.371 92.7317 69.6425 93.1483 70.0379 93.4192C70.4334 93.69 70.9204 93.7929 71.3918 93.7052C71.4081 93.7022 71.4243 93.6989 71.4405 93.6954Z" fill="#A0616A"/>
<path d="M73.8254 68.6709L71.8171 70.27C71.8171 70.27 69.4169 74.6272 71.1373 75.5308C72.8578 76.4345 78.2062 79.4398 78.2062 79.4398C78.2062 79.4398 75.9958 81.6371 75.735 82.7042C75.4743 83.7714 76.0514 84.7196 75.1354 84.4964C74.2193 84.2733 74.1933 85 73.9698 85.9147C73.7463 86.8294 72.2566 87.6718 72.2566 87.6718L75.104 89.7696C75.104 89.7696 76.4221 90.2344 76.5301 89.13C76.6382 88.0256 76.338 88.1814 77.254 88.4046C78.1701 88.6278 78.942 87.1964 79.43 85.8615C79.9179 84.5266 84.8961 78.3133 84.8961 78.3133L79.6877 72.5259C78.0978 70.7593 76.0788 69.4316 73.8254 68.6709Z" fill="#2F4858"/>
<path d="M73.3676 159.362L71.294 159.345L70.3762 151.172L73.4366 151.198L73.3676 159.362Z" fill="#A0616A"/>
<path d="M66.7259 162.654C66.724 162.9 66.8197 163.136 66.992 163.311C67.1644 163.486 67.3992 163.586 67.645 163.588L71.7677 163.622L72.4894 162.162L72.7545 163.63L74.31 163.644L73.9172 158.407L73.376 158.371L71.1685 158.219L70.4563 158.172L70.4439 159.654L67.1321 161.896C67.008 161.981 66.9062 162.093 66.8355 162.225C66.7647 162.357 66.7271 162.505 66.7259 162.654Z" fill="#2F2E41"/>
<path d="M54.3308 159.362L52.2574 159.345L51.3394 151.172L54.3997 151.198L54.3308 159.362Z" fill="#A0616A"/>
<path d="M47.689 162.654C47.6872 162.9 47.7829 163.136 47.9552 163.311C48.1275 163.486 48.3623 163.586 48.6081 163.588L52.7308 163.622L53.4525 162.162L53.7176 163.63L55.2732 163.644L54.8804 158.407L54.3392 158.371L52.1317 158.219L51.4195 158.172L51.407 159.654L48.0952 161.896C47.9712 161.981 47.8694 162.093 47.7986 162.225C47.7279 162.357 47.6902 162.505 47.689 162.654Z" fill="#2F2E41"/>
<path d="M59.6953 90.1587C59.6953 90.1587 55.7138 92.1171 56.7517 93.296C57.7897 94.4749 56.9366 95.1415 55.6428 96.2488C54.349 97.3561 51.7444 110.327 51.7444 110.327L48.3718 130.42C48.3718 130.42 49.2667 147.965 49.8672 148.59C50.4677 149.215 51.3918 148.292 50.4677 149.215C49.5436 150.137 48.8043 149.399 49.5436 150.137C50.2829 150.876 50.4677 152.906 50.4677 152.906L55.2571 152.503C55.2571 152.503 58.3746 139.017 56.2694 133.043L64.5283 111.188L67.0252 132.276C67.0252 132.276 68.3957 149.399 69.3198 149.953C70.2439 150.506 70.9097 150.544 70.1148 151.263C69.3198 151.983 69.3198 150.876 69.3198 151.983V153.819L73.7906 154.432C73.7906 154.432 75.8673 138.016 74.9038 130.42L77.8218 104.923L75.5487 93.4326L73.2011 90.3433L59.6953 90.1587Z" fill="#2F2E41"/>
<path d="M40.482 83.9439C40.8806 84.2345 41.377 84.3584 41.8656 84.2891C42.3543 84.2199 42.7965 83.9629 43.0984 83.573C43.1585 83.4928 43.2118 83.4078 43.2579 83.3188L49.8084 84.1998L51.4256 81.0382L42.3215 80.8C41.9371 80.6379 41.5098 80.6074 41.1062 80.7133C40.7026 80.8193 40.3455 81.0556 40.0906 81.3855C39.9474 81.5746 39.8429 81.79 39.783 82.0194C39.7231 82.2489 39.7091 82.4878 39.7418 82.7227C39.7744 82.9575 39.853 83.1836 39.9732 83.3881C40.0933 83.5926 40.2526 83.7715 40.442 83.9145C40.4552 83.9245 40.4685 83.9343 40.482 83.9439Z" fill="#A0616A"/>
<path d="M60.6121 68.8479L58.0756 68.4429C58.0756 68.4429 55.0312 70.1026 55.5211 71.9809C56.011 73.8593 55.5915 79.3347 55.5915 79.3347C55.5915 79.3347 52.4762 79.1834 51.5106 79.7097C50.545 80.2361 50.2319 81.3008 49.78 80.4744C49.3282 79.648 49.8046 79.2095 48.977 79.6607C48.1493 80.1119 45.4905 80.4886 45.4905 80.4886L44.4216 84.1227C44.4216 84.1227 45.9067 86.1618 46.7969 85.4976C47.6872 84.8335 47.8624 83.8441 48.3142 84.6705C48.7661 85.4968 48.8921 87.0372 50.2089 86.4982C51.5256 85.9591 60.9315 83.5132 60.9315 83.5132L62.0683 72.1662L60.6121 68.8479Z" fill="#2F4858"/>
<path d="M58.1365 92.9604C58.1365 92.9604 56.3456 90.1064 56.6865 89.6879C57.0275 89.2694 57.4545 89.9928 56.6865 89.262C55.9185 88.5312 60.2255 83.654 60.5083 82.9356C60.7912 82.2173 56.1973 69.6737 56.1973 69.6737L60.1099 67.3207L63.4167 62.6753L69.3307 63.62L71.4115 67.8317L74.3506 68.8672L74.5978 69.114V76.7653C74.5978 76.7653 75.9058 83.2961 73.0279 85.5446C73.0279 85.5446 74.401 88.5312 74.0314 89.0848C73.6617 89.6385 80.3081 96.9135 75.0921 97.7446C69.3787 98.6549 57.1918 92.6377 58.1365 92.9604Z" fill="#2F4858"/>
<path d="M28.8027 163.706C28.8026 163.745 28.8101 163.783 28.8249 163.819C28.8396 163.855 28.8613 163.887 28.8886 163.914C28.916 163.942 28.9484 163.963 28.9842 163.978C29.0199 163.993 29.0582 164 29.0969 164H91.706C91.784 164 91.8588 163.969 91.914 163.914C91.9691 163.859 92.0001 163.784 92.0001 163.706C92.0001 163.628 91.9691 163.554 91.914 163.499C91.8588 163.444 91.784 163.413 91.706 163.413H29.0969C29.0582 163.412 29.0199 163.42 28.9842 163.435C28.9484 163.449 28.916 163.471 28.8886 163.498C28.8613 163.526 28.8396 163.558 28.8249 163.594C28.8102 163.629 28.8026 163.668 28.8027 163.706Z" fill="#CCCCCC"/>
<path d="M67.2448 63.838C70.5708 63.838 73.267 61.1458 73.267 57.8247C73.267 54.5037 70.5708 51.8115 67.2448 51.8115C63.9189 51.8115 61.2227 54.5037 61.2227 57.8247C61.2227 61.1458 63.9189 63.838 67.2448 63.838Z" fill="#A0616A"/>
<path d="M71.8985 53.3794C71.8365 52.8382 71.4651 52.1694 71.2067 51.6896C70.9483 51.2099 70.4494 50.8182 69.9049 50.8516C69.6824 50.8773 69.4695 50.9564 69.2842 51.0821C69.099 51.2078 68.9469 51.3764 68.8411 51.5735C68.6332 51.9703 68.52 52.4096 68.5101 52.8572C68.4532 53.856 68.6203 54.8549 68.9991 55.7811C69.3778 56.7072 69.9588 57.5373 70.6997 58.2108C71.1218 58.5888 71.6297 58.9252 72.1965 58.938C72.4539 58.9318 72.7075 58.8743 72.9423 58.7689C73.1772 58.6634 73.3885 58.5121 73.5639 58.3239C74.4814 57.4064 74.6201 55.8981 74.1301 54.6975C73.6401 53.4968 73.4214 53.0296 72.3014 52.3737" fill="#2F2E41"/>
<path d="M63.4385 62.0275C63.5392 62.5625 62.6126 65.1068 62.9087 65.5653C62.9087 65.5653 65.9747 66.6287 67.147 66.7051C68.5792 66.7976 69.731 66.2109 71.0705 65.328C71.0948 64.849 71.2336 64.3828 71.4754 63.9684C71.4552 64.2894 71.5205 64.61 71.6647 64.8976C76.6815 63.6532 75.4534 59.1578 72.4233 57.0518L70.4091 52.4259C71.0134 52.627 69.1892 49.5194 67.2656 51.77C64.8585 49.3223 60.1955 52.846 59.6113 55.9937C60.1735 55.2832 60.4663 55.367 60.6105 55.8569C60.7762 55.4448 61.0387 55.0786 61.3759 54.7889C61.2082 55.1198 61.1225 55.4861 61.1261 55.8569C64.923 56.0922 64.2163 58.6499 61.1042 62.4814C62.255 61.7661 61.4785 64.8486 62.093 65.5854C62.1231 65.0705 63.3297 62.5283 63.4385 62.0275Z" fill="#2F2E41"/>
<path d="M68.9176 57.1012C68.9662 57.1012 69.0131 57.0836 69.0497 57.0517C69.0863 57.0199 69.1102 56.9759 69.1169 56.9278C69.1236 56.8798 69.1127 56.8309 69.0861 56.7903C69.0596 56.7497 69.0193 56.72 68.9726 56.7067C68.9294 56.4592 68.9247 56.2065 68.9588 55.9575C69.0243 54.8465 69.134 52.9871 67.3261 51.7319C67.2822 51.7017 67.2281 51.69 67.1757 51.6995C67.1233 51.709 67.0767 51.7389 67.0463 51.7826C67.0159 51.8262 67.004 51.8802 67.0134 51.9326C67.0227 51.985 67.0525 52.0315 67.0961 52.0621C68.7186 53.1886 68.6212 54.8407 68.5567 55.9339C68.5199 56.5589 68.4932 57.0103 68.8729 57.0962C68.8875 57.0996 68.9026 57.1013 68.9176 57.1012Z" fill="#FF1B18"/>
<path d="M68.824 52.7055C70.0534 52.196 71.3628 51.9062 72.6927 51.8494C73.7475 51.8047 75.006 52.0396 75.4348 53.0029C75.6949 53.5873 75.5563 54.2723 75.3184 54.8661C75.0804 55.4598 73.9683 56.6585 74.6087 56.6454C76.217 56.6125 76.9036 58.0486 76.0877 60.2801C75.6145 61.5743 78.5506 61.5245 79.9194 61.6977C78.891 62.0787 77.8468 62.4633 76.7537 62.5547C75.6606 62.6461 74.4932 62.4088 73.677 61.677C72.7939 60.8851 72.4545 59.6551 72.3042 58.4793C72.154 57.3036 72.1463 56.0927 71.7471 54.9765C71.348 53.8602 70.4311 52.8206 69.2482 52.7216" fill="#2F2E41"/>
</g>
<defs>
<clipPath id="clip0_2126_437">
<rect width="92" height="164" fill="white"/>
</clipPath>
</defs>
</svg>
